HIERARCHY
ROOT Hips
{
  OFFSET 373.837 88.1643 177.628
  CHANNELS 6 Xposition Yposition Zposition Zrotation Xrotation Yrotation
  JOINT RightUpLeg
  {
    OFFSET -9.27602 -1.55371 -0.0617006
    CHANNELS 3 Zrotation Xrotation Yrotation
    JOINT RightLeg
    {
      OFFSET 0.0569767 -41.8713 0.0644562
      CHANNELS 3 Zrotation Xrotation Yrotation
      JOINT RightFoot
      {
        OFFSET -0.463049 -43.0064 -0.0336586
        CHANNELS 3 Zrotation Xrotation Yrotation
        End Site
        {
          OFFSET 0 -7.69 17.5
        }
      }
    }
  }
  JOINT LeftUpLeg
  {
    OFFSET 9.29312 -1.63815 0.0236341
    CHANNELS 3 Zrotation Xrotation Yrotation
    JOINT LeftLeg
    {
      OFFSET 0.0670365 -41.8776 -0.0578197
      CHANNELS 3 Zrotation Xrotation Yrotation
      JOINT LeftFoot
      {
        OFFSET 0.591956 -40.8352 0.210268
        CHANNELS 3 Zrotation Xrotation Yrotation
        End Site
        {
          OFFSET 0 -7.69 17.5
        }
      }
    }
  }
  JOINT Spine
  {
    OFFSET 0.0229142 14.2949 0.0394214
    CHANNELS 3 Zrotation Xrotation Yrotation
    JOINT Spine1
    {
      OFFSET 0.0328969 9.71943 0.0194292
      CHANNELS 3 Zrotation Xrotation Yrotation
      JOINT Spine2
      {
        OFFSET 0.0292955 10.1244 -0.00440821
        CHANNELS 3 Zrotation Xrotation Yrotation
        JOINT Spine3
        {
          OFFSET 0.024556 9.71184 0.0101567
          CHANNELS 3 Zrotation Xrotation Yrotation
          JOINT Neck
          {
            OFFSET 0.152325 10.3757 0.0664015
            CHANNELS 3 Zrotation Xrotation Yrotation
            JOINT Head
            {
              OFFSET 0.134553 9.4858 0.0499874
              CHANNELS 3 Zrotation Xrotation Yrotation
              End Site
              {
                OFFSET 0 15.95 0
              }
            }
          }
          JOINT RightShoulder
          {
            OFFSET -3.19519 6.89024 -0.0330231
            CHANNELS 3 Zrotation Xrotation Yrotation
            JOINT RightArm
            {
              OFFSET -12.6524 0.0927817 0.0603028
              CHANNELS 3 Zrotation Xrotation Yrotation
              JOINT RightForeArm
              {
                OFFSET -26.4983 -0.141459 0.202928
                CHANNELS 3 Zrotation Xrotation Yrotation
                JOINT RightHand
                {
                  OFFSET -25.9883 -0.0240172 0.0141731
                  CHANNELS 3 Zrotation Xrotation Yrotation
                  JOINT RightHandThumb1
                  {
                    OFFSET -2.48905 0.190105 3.12053
                    CHANNELS 3 Zrotation Xrotation Yrotation
                    JOINT RightHandThumb2
                    {
                      OFFSET -3.68274 0 0
                      CHANNELS 3 Zrotation Xrotation Yrotation
                      JOINT RightHandThumb3
                      {
                        OFFSET -2.55832 0 0
                        CHANNELS 3 Zrotation Xrotation Yrotation
                        End Site
                        {
                          OFFSET -2.194 0 0
                        }
                      }
                    }
                  }
                  JOINT RightInHandIndex
                  {
                    OFFSET -3.22368 0.508421 1.97842
                    CHANNELS 3 Zrotation Xrotation Yrotation
                    JOINT RightHandIndex1
                    {
                      OFFSET -5.21684 -0.091368 0.999158
                      CHANNELS 3 Zrotation Xrotation Yrotation
                      JOINT RightHandIndex2
                      {
                        OFFSET -3.61937 0 0
                        CHANNELS 3 Zrotation Xrotation Yrotation
                        JOINT RightHandIndex3
                        {
                          OFFSET -2.0521 0 0
                          CHANNELS 3 Zrotation Xrotation Yrotation
                          End Site
                          {
                            OFFSET -1.805 0 0
                          }
                        }
                      }
                    }
                  }
                  JOINT RightInHandMiddle
                  {
                    OFFSET -3.38211 0.517263 0.756737
                    CHANNELS 3 Zrotation Xrotation Yrotation
                    JOINT RightHandMiddle1
                    {
                      OFFSET -5.17411 -0.084 0.313895
                      CHANNELS 3 Zrotation Xrotation Yrotation
                      JOINT RightHandMiddle2
                      {
                        OFFSET -3.94947 0 0
                        CHANNELS 3 Zrotation Xrotation Yrotation
                        JOINT RightHandMiddle3
                        {
                          OFFSET -2.47579 0 0
                          CHANNELS 3 Zrotation Xrotation Yrotation
                          End Site
                          {
                            OFFSET -1.975 0 0
                          }
                        }
                      }
                    }
                  }
                  JOINT RightInHandRing
                  {
                    OFFSET -3.36516 0.537895 -0.128947
                    CHANNELS 3 Zrotation Xrotation Yrotation
                    JOINT RightHandRing1
                    {
                      OFFSET -4.63474 -0.022105 -0.478947
                      CHANNELS 3 Zrotation Xrotation Yrotation
                      JOINT RightHandRing2
                      {
                        OFFSET -3.44238 0 0
                        CHANNELS 3 Zrotation Xrotation Yrotation
                        JOINT RightHandRing3
                        {
                          OFFSET -2.3881 0 0
                          CHANNELS 3 Zrotation Xrotation Yrotation
                          End Site
                          {
                            OFFSET -1.857 0 0
                          }
                        }
                      }
                    }
                  }
                  JOINT RightInHandPinky
                  {
                    OFFSET -3.16105 0.469368 -1.20179
                    CHANNELS 3 Zrotation Xrotation Yrotation
                    JOINT RightHandPinky1
                    {
                      OFFSET -4.14105 -0.022105 -1.09053
                      CHANNELS 3 Zrotation Xrotation Yrotation
                      JOINT RightHandPinky2
                      {
                        OFFSET -2.75653 0 0
                        CHANNELS 3 Zrotation Xrotation Yrotation
                        JOINT RightHandPinky3
                        {
                          OFFSET -1.74189 0 0
                          CHANNELS 3 Zrotation Xrotation Yrotation
                          End Site
                          {
                            OFFSET -1.645 0 0
                          }
                        }
                      }
                    }
                  }
                }
              }
            }
          }
          JOINT LeftShoulder
          {
            OFFSET 3.28609 6.87948 -0.0751467
            CHANNELS 3 Zrotation Xrotation Yrotation
            JOINT LeftArm
            {
              OFFSET 12.831 -0.0663252 -0.1321
              CHANNELS 3 Zrotation Xrotation Yrotation
              JOINT LeftForeArm
              {
                OFFSET 26.5106 -0.082189 -0.0903645
                CHANNELS 3 Zrotation Xrotation Yrotation
                JOINT LeftHand
                {
                  OFFSET 25.9965 -0.0307163 -0.0535747
                  CHANNELS 3 Zrotation Xrotation Yrotation
                  JOINT LeftHandThumb1
                  {
                    OFFSET 2.48905 0.190105 3.12053
                    CHANNELS 3 Zrotation Xrotation Yrotation
                    JOINT LeftHandThumb2
                    {
                      OFFSET 3.68274 0 0
                      CHANNELS 3 Zrotation Xrotation Yrotation
                      JOINT LeftHandThumb3
                      {
                        OFFSET 2.55832 0 0
                        CHANNELS 3 Zrotation Xrotation Yrotation
                        End Site
                        {
                          OFFSET 2.194 0 0
                        }
                      }
                    }
                  }
                  JOINT LeftInHandIndex
                  {
                    OFFSET 3.22368 0.508421 1.97842
                    CHANNELS 3 Zrotation Xrotation Yrotation
                    JOINT LeftHandIndex1
                    {
                      OFFSET 5.21684 -0.091368 0.999158
                      CHANNELS 3 Zrotation Xrotation Yrotation
                      JOINT LeftHandIndex2
                      {
                        OFFSET 3.61937 0 0
                        CHANNELS 3 Zrotation Xrotation Yrotation
                        JOINT LeftHandIndex3
                        {
                          OFFSET 2.0521 0 0
                          CHANNELS 3 Zrotation Xrotation Yrotation
                          End Site
                          {
                            OFFSET 1.805 0 0
                          }
                        }
                      }
                    }
                  }
                  JOINT LeftInHandMiddle
                  {
                    OFFSET 3.38211 0.517263 0.756737
                    CHANNELS 3 Zrotation Xrotation Yrotation
                    JOINT LeftHandMiddle1
                    {
                      OFFSET 5.17411 -0.084 0.313895
                      CHANNELS 3 Zrotation Xrotation Yrotation
                      JOINT LeftHandMiddle2
                      {
                        OFFSET 3.94947 0 0
                        CHANNELS 3 Zrotation Xrotation Yrotation
                        JOINT LeftHandMiddle3
                        {
                          OFFSET 2.47579 0 0
                          CHANNELS 3 Zrotation Xrotation Yrotation
                          End Site
                          {
                            OFFSET 1.975 0 0
                          }
                        }
                      }
                    }
                  }
                  JOINT LeftInHandRing
                  {
                    OFFSET 3.36516 0.537895 -0.128947
                    CHANNELS 3 Zrotation Xrotation Yrotation
                    JOINT LeftHandRing1
                    {
                      OFFSET 4.63474 -0.022105 -0.478947
                      CHANNELS 3 Zrotation Xrotation Yrotation
                      JOINT LeftHandRing2
                      {
                        OFFSET 3.44238 0 0
                        CHANNELS 3 Zrotation Xrotation Yrotation
                        JOINT LeftHandRing3
                        {
                          OFFSET 2.3881 0 0
                          CHANNELS 3 Zrotation Xrotation Yrotation
                          End Site
                          {
                            OFFSET 1.857 0 0
                          }
                        }
                      }
                    }
                  }
                  JOINT LeftInHandPinky
                  {
                    OFFSET 3.16105 0.469368 -1.20179
                    CHANNELS 3 Zrotation Xrotation Yrotation
                    JOINT LeftHandPinky1
                    {
                      OFFSET 4.14105 -0.022105 -1.09053
                      CHANNELS 3 Zrotation Xrotation Yrotation
                      JOINT LeftHandPinky2
                      {
                        OFFSET 2.75653 0 0
                        CHANNELS 3 Zrotation Xrotation Yrotation
                        JOINT LeftHandPinky3
                        {
                          OFFSET 1.74189 0 0
                          CHANNELS 3 Zrotation Xrotation Yrotation
                          End Site
                          {
                            OFFSET 1.645 0 0
                          }
                        }
                      }
                    }
                  }
                }
              }
            }
          }
        }
      }
    }
  }
}
MOTION
Frames: 2
Frame Time: 0.00833333
1.417678671637128900e+03 8.776942621697304503e+01 1.808041792310036158e+02 2.406603789498244694e+01 3.269259530795604718e+00 -1.136916462586002581e+02 1.786974571255445454e+01 -4.679428558688204021e+01 1.094773016424475465e+01 -4.713841359342177739e+00 1.618061270873772628e+01 -3.405360352440045979e+00 8.615615068596397919e+00 1.723779631340612184e+01 4.542127216613303631e+01 2.825020395531218753e+01 -2.780645309169975121e+01 1.825191079203437283e+01 -1.361426120140702878e+01 3.804654015247564303e+01 1.489758322020134074e+01 -1.352015286975531083e+00 -1.718613961114301603e+01 4.675956936611520121e+00 -3.906265399374076353e+00 2.771929604371787370e+00 5.432805952574799591e-01 -9.119382559952388112e-01 6.228406141634716953e-01 6.453747618789673623e-02 -1.511235509951883937e+00 9.589408467682449810e-01 5.899941589336687997e-02 -9.803920072528763408e-01 -6.644243598871071299e-01 1.814076271094161807e+00 -2.122467731673518543e-01 -5.106518162219199297e+00 2.062360162336004521e+01 -1.729336386328407826e+01 -7.014493899318017256e-01 2.307033483416422115e+01 -2.702369661923047062e+00 -2.025345585055338127e+00 1.232289153087015698e+01 5.545508717606503524e+01 -4.312007495583209504e+01 2.796693631445329942e+01 4.906770231804148352e+01 -3.566366143102848696e+01 9.335761077516373518e+01 4.433110003480056349e+00 -2.633173365029219326e+01 -7.898295474656357840e+00 2.818400000000000105e+01 1.072940000000000005e+01 1.915919999999999845e+01 -4.369338310327903866e-15 7.398712376522924615e-16 -1.000000000000000000e+01 5.450994925643642413e-15 -8.361130920959813646e-16 -1.000000000000000000e+01 -1.190096809982928196e-16 -6.189167599539551342e-15 -5.987899834251909954e-15 1.998179999999999978e+01 8.718970000000000331e-01 2.396399999999999864e+00 2.400000000000000000e+01 -3.602151941620516740e-15 3.577273281305799137e-15 2.000000000000000000e+01 6.116852847963028089e-15 3.301331098753697572e-14 -1.190096809982928196e-16 -6.189167599539551342e-15 -5.987899834251909954e-15 2.000000000000000000e+01 -4.920069574783602410e-15 -2.132375465466004374e-15 2.400000000000000000e+01 -6.896431165110832309e-15 2.217457204937201205e-16 2.000000000000000000e+01 5.725746905223336944e-15 2.070263646071218179e-14 -1.190096809982928196e-16 -6.189167599539551342e-15 -5.987899834251909954e-15 1.997479999999999833e+01 -1.025649999999999951e+00 -2.819380000000000219e+00 2.400000000000000000e+01 -7.587814204853652265e-16 -4.050052450681313883e-15 2.000000000000000000e+01 9.207053337081946498e-15 2.876183482460368153e-14 -1.190096809982928196e-16 -6.189167599539551342e-15 -5.987899834251909954e-15 1.978150000000000119e+01 -3.009479999999999933e+00 -8.305149999999999366e+00 2.400000000000000000e+01 -4.494643997007453860e-15 -6.923603753814150413e-16 2.000000000000000000e+01 -3.898583888974472565e-15 9.434622390945048879e-15 9.035548708937943374e+00 -1.996907847962607008e+01 -4.977043077649625502e+01 -2.587156011670745670e+01 2.163947127501157297e+01 -8.981090597559142452e+01 4.235173323661580724e+01 -8.714339280531593346e+00 1.936201055791041625e+00 -2.222459099409530836e+01 -1.782793113753468361e+01 2.428852071553073699e-01 -2.818400000000000105e+01 1.072940000000000005e+01 -1.915919999999999845e+01 4.544643954834069128e-15 -1.633641556830662538e-15 1.000000000000000000e+01 2.826455588913729645e-15 -8.496633296486070151e-16 1.000000000000000000e+01 3.424976846272340016e-16 -6.262517781649737960e-16 -6.201183764293909174e-17 -1.998179999999999978e+01 8.718970000000000331e-01 -2.396399999999999864e+00 -2.400000000000000000e+01 -2.978733052967723155e-15 1.636966753893453652e-14 -2.000000000000000000e+01 -3.171114754548464204e-15 7.846854996083965866e-15 3.424976846272340016e-16 -6.262517781649737960e-16 -6.201183764293909174e-17 -2.000000000000000000e+01 1.195865710888621663e-15 5.137153124053610370e-15 -2.400000000000000000e+01 -6.884753987768174226e-15 -1.488567903708803150e-15 -2.000000000000000000e+01 1.212856642692651038e-15 -2.056285762153023973e-15 3.424976846272340016e-16 -6.262517781649737960e-16 -6.201183764293909174e-17 -1.997479999999999833e+01 -1.025649999999999951e+00 2.819380000000000219e+00 -2.400000000000000000e+01 2.374123672429441263e-15 1.290022962716760305e-14 -2.000000000000000000e+01 -4.519432985165865511e-15 6.856259586275686674e-15 3.424976846272340016e-16 -6.262517781649737960e-16 -6.201183764293909174e-17 -1.978150000000000119e+01 -3.009479999999999933e+00 8.305149999999999366e+00 -2.400000000000000000e+01 -9.463102250141243050e-16 1.310197388512217195e-14 -2.000000000000000000e+01 -6.658050419643117068e-15 8.018093852247675534e-15
1.417669666494424291e+03 8.777196040183082459e+01 1.808294644819889925e+02 2.404046605713841700e+01 3.272932899326728595e+00 -1.135790761307595318e+02 1.785330422883384927e+01 -4.672849646629411779e+01 1.093550923869468861e+01 -4.713219921616937036e+00 1.617085705931125261e+01 -3.415853983538064575e+00 8.617469396337035903e+00 1.724370972303037775e+01 4.539013741425577564e+01 2.819850169637113879e+01 -2.779248067611533912e+01 1.820052527447769819e+01 -1.358613691716382732e+01 3.803651726415711209e+01 1.486735063983894811e+01 -1.354160400086927396e+00 -1.717732476444635381e+01 4.623184074294336199e+00 -3.896866742261245520e+00 2.765709446982913100e+00 5.611249942646523436e-01 -9.098093901951319618e-01 6.207471935502282268e-01 6.939080613541026565e-02 -1.507642394238087435e+00 9.552803917451302418e-01 6.651626448723213514e-02 -9.786932502175202941e-01 -6.638078315258314488e-01 1.810284163844913197e+00 -2.093133829688873515e-01 -5.106494083596950340e+00 2.058332203196974319e+01 -1.726292494748755857e+01 -6.860713292420275167e-01 2.302153558795726696e+01 -2.710062200227354445e+00 -2.037412090206501603e+00 1.233969378268310102e+01 5.543191138821707398e+01 -4.307912495412722365e+01 2.800787785294499699e+01 4.899493290929439837e+01 -3.561435061166166349e+01 9.334583215371225151e+01 4.431979905969496869e+00 -2.632971101666185376e+01 -7.860375843788490968e+00 2.818400000000000105e+01 1.072940000000000005e+01 1.915919999999999845e+01 -4.369665615329776858e-15 7.414753591135392691e-16 -1.000000000000000000e+01 5.454547720826433434e-15 -8.363711092179377127e-16 -1.000000000000000000e+01 -1.146693398659907432e-16 -6.188548184161202899e-15 -5.986388447175331395e-15 1.998179999999999978e+01 8.718970000000000331e-01 2.396399999999999864e+00 2.400000000000000000e+01 -3.601721774157135409e-15 3.582912576486449821e-15 2.000000000000000000e+01 6.118109630512284300e-15 3.304661098712909673e-14 -1.146693398659907432e-16 -6.188548184161202899e-15 -5.986388447175331395e-15 2.000000000000000000e+01 -4.920884804005495999e-15 -2.143437128784201756e-15 2.400000000000000000e+01 -6.906024395166469519e-15 2.326157902491725539e-16 2.000000000000000000e+01 5.730200827757244539e-15 2.073953188198903787e-14 -1.146693398659907432e-16 -6.188548184161202899e-15 -5.986388447175331395e-15 1.997479999999999833e+01 -1.025649999999999951e+00 -2.819380000000000219e+00 2.400000000000000000e+01 -7.604142641562073434e-16 -4.042624501794064728e-15 2.000000000000000000e+01 9.205560981083649017e-15 2.878259234908921289e-14 -1.146693398659907432e-16 -6.188548184161202899e-15 -5.986388447175331395e-15 1.978150000000000119e+01 -3.009479999999999933e+00 -8.305149999999999366e+00 2.400000000000000000e+01 -4.495454285225638010e-15 -6.830750304327282254e-16 2.000000000000000000e+01 -3.899558463786118277e-15 9.442666841576252793e-15 9.024924098938587491e+00 -1.996113781536051590e+01 -4.974659346105000424e+01 -2.591606627235540827e+01 2.160207091666358181e+01 -8.978071097756750873e+01 4.233236513979135651e+01 -8.739886183987977120e+00 1.827980132261981083e+00 -2.222343194227380891e+01 -1.781357701636608937e+01 2.127027918961514885e-01 -2.818400000000000105e+01 1.072940000000000005e+01 -1.915919999999999845e+01 4.543256515534627037e-15 -1.631590473342173374e-15 1.000000000000000000e+01 2.824824455751064611e-15 -8.493481000946588054e-16 1.000000000000000000e+01 3.431012148431215708e-16 -6.266858245627110257e-16 -6.431190123401028901e-17 -1.998179999999999978e+01 8.718970000000000331e-01 -2.396399999999999864e+00 -2.400000000000000000e+01 -2.981391552059735380e-15 1.636842089030277988e-14 -2.000000000000000000e+01 -3.164852742163453836e-15 7.834437898254751686e-15 3.431012148431215708e-16 -6.266858245627110257e-16 -6.431190123401028901e-17 -2.000000000000000000e+01 1.195932675891102802e-15 5.138153243778058686e-15 -2.400000000000000000e+01 -6.887820559008386724e-15 -1.492894520931190406e-15 -2.000000000000000000e+01 1.215603047763838588e-15 -2.067004832068956323e-15 3.431012148431215708e-16 -6.266858245627110257e-16 -6.431190123401028901e-17 -1.997479999999999833e+01 -1.025649999999999951e+00 2.819380000000000219e+00 -2.400000000000000000e+01 2.372001176352133696e-15 1.289359803563737345e-14 -2.000000000000000000e+01 -4.518212130509437813e-15 6.843888058518838333e-15 3.431012148431215708e-16 -6.266858245627110257e-16 -6.431190123401028901e-17 -1.978150000000000119e+01 -3.009479999999999933e+00 8.305149999999999366e+00 -2.400000000000000000e+01 -9.475162158440588370e-16 1.309574448475055041e-14 -2.000000000000000000e+01 -6.661360922498894083e-15 8.004371570112083777e-15
